<svg xmlns="http://www.w3.org/2000/svg" width="143" height="35" fill="none"><g fill="#29B475" clip-path="url(#a)"><path d="M30.508 18.562c.01 2.442.016 4.883.037 7.325.003.32-.128.488-.395.643a7721.01 7721.01 0 0 0-14.475 8.332c-.255.148-.47.204-.757.035-2.105-1.242-4.223-2.466-6.336-3.696.012-.307.266-.396.476-.52 1.804-1.07 3.648-2.072 5.446-3.151.214-.129.434-.252.697-.246l8.565-4.881c.068-.082.113-.183.197-.255 1.835-1.142 3.747-2.153 5.606-3.255.278-.164.544-.458.939-.33ZM.043 16.415c-.012-2.44-.02-4.88-.043-7.32-.003-.33.155-.484.413-.632C5.238 5.69 10.062 2.913 14.882.135c.228-.132.422-.203.688-.045 2.126 1.253 4.26 2.491 6.393 3.734-.071.34-.37.46-.622.599-1.718.958-3.409 1.964-5.117 2.942-.28.16-.567.313-.895.36-2.506 1.425-5.014 2.847-7.519 4.276-.365.208-.711.447-1.067.674-1.02.802-2.197 1.347-3.304 2.005-.898.533-1.79 1.076-2.712 1.567-.212.114-.407.309-.684.168Z"/><path d="M.043 16.415c2.03-1.16 4.063-2.32 6.091-3.483.194-.11.371-.256.61-.257.008 3.012.029 6.023.012 9.036-.003.51.149.797.602 1.053 2.625 1.487 5.23 3.008 7.844 4.519-1.999 1.17-3.998 2.341-5.993 3.515-.214.126-.416.269-.625.402-2.75-1.57-5.497-3.142-8.25-4.702-.254-.145-.334-.326-.331-.602.015-3.16.027-6.32.04-9.48ZM23.916 22.273l-.15.13c-.016-1.515-.016-1.515-1.52-1.515-2.097 0-4.195-.017-6.293.012-.538.007-.743-.107-.731-.694.039-1.792.028-3.586.004-5.378-.006-.491.092-.698.649-.696 4.696.02 9.39.018 14.086.003.464-.002.611.133.586.591-.043.77-.03 1.542-.041 2.312-.4.584-1.062.812-1.634 1.146-1.356.792-2.721 1.57-4.086 2.349-.461.263-.743.557-.694 1.11.02.223-.006.45-.175.63ZM15.33 7.726c1.847-1.082 3.695-2.165 5.542-3.249.365-.214.727-.436 1.09-.654 2.756 1.567 5.509 3.138 8.268 4.7.222.126.315.278.312.534-.01 1.023-.015 2.046.002 3.067.005.349-.106.48-.47.48-2-.013-4-.007-6.001-.007-.232 0-.436-.064-.639-.181-2.698-1.565-5.401-3.127-8.105-4.69Z"/><path d="M23.808 22.403c-.001-.05.003-.103-.004-.153-.144-.924.129-1.497 1.051-1.966 1.934-.982 3.774-2.151 5.652-3.244 0 .52 0 1.04.002 1.561-2.093 1.22-4.185 2.438-6.28 3.652-.128.072-.281.1-.42.15ZM51.16 20.865c0 .997-.017 1.995.008 2.992.01.424-.127.58-.555.55-.474-.03-.95-.002-1.425-.01-.164-.003-.436.056-.447-.154-.043-.849-.468-.35-.749-.217-4.846 2.32-10.282-1.295-10.039-6.68.207-4.565 4.004-7.603 8.707-6.988 1.577.207 2.996.73 4.214 1.78.444.381.605.698.024 1.07-.042.027-.074.067-.11.102-.425.386-.79.928-1.29 1.117-.587.221-.9-.53-1.386-.784-1.778-.93-4.18-.703-5.544.589-1.349 1.277-1.748 3.712-.903 5.486 1.034 2.17 4.253 2.959 6.2 1.533.282-.205.355-.44.35-.762-.013-.897.013-1.795-.011-2.692-.01-.409.099-.599.542-.566.769.055 1.745-.302 2.252.138.49.424.116 1.412.157 2.15.027.448.006.897.006 1.346ZM88.139 17.815c1.285-1.208 2.585-2.405 3.849-3.634.335-.325.668-.454 1.126-.438.94.03 1.882.008 2.942.008-.539.808-1.212 1.323-1.778 1.929-.68.73-1.379 1.448-2.108 2.128-.376.349-.377.572-.053.97 1.461 1.801 2.883 3.633 4.44 5.606-1.318 0-2.494.01-3.668-.009-.243-.005-.338-.276-.476-.446-.883-1.084-1.772-2.164-2.633-3.264-.264-.339-.41-.333-.748-.056-.81.664-1.186 1.423-1.099 2.507.102 1.277.024 1.283-1.291 1.283-.4 0-.804-.029-1.2.008-.466.04-.598-.132-.593-.592.022-2.045.009-4.09.009-6.135 0-2.443.012-4.888-.01-7.332-.005-.48.115-.674.622-.64.624.04 1.253.046 1.875-.002.531-.04.621.19.618.648-.016 2.22-.007 4.44-.007 6.659v.73c.061.026.121.048.183.072ZM61.158 24.552c-2.34-.047-4.372-.752-5.483-2.967-.994-1.978-.862-3.996.47-5.793 1.401-1.89 3.409-2.456 5.661-2.117 2.556.383 4.24 2.207 4.489 4.613.063.617-.16.755-.69.85-2.138.385-4.27.803-6.401 1.227-.222.043-.57-.03-.634.262-.054.248.198.439.37.615.983 1.023 3.2 1.125 4.517.156.387-.284.61-.313.893.078.175.241.404.44.609.66.719.771.722.795-.173 1.424-1.086.764-2.319 1.01-3.628.992Zm-.592-8.586c-1.132-.005-2.148.847-2.379 2.174-.072.409-.02.62.473.517 1.39-.29 2.781-.576 4.18-.826.462-.082.45-.27.26-.593-.513-.872-1.283-1.284-2.534-1.272ZM75.65 24.543c-1.415.036-2.737-.288-3.9-1.107-1.858-1.311-2.623-3.625-1.99-5.919.594-2.156 2.554-3.719 4.894-3.905 3.242-.256 5.676 1.56 6.116 4.537.087.59-.004.885-.688 1-2.143.361-4.273.797-6.404 1.222-.22.044-.573-.037-.631.26-.048.246.204.436.377.615.968.997 3.188 1.14 4.454.191.513-.385.754-.26 1.063.156.149.2.335.37.505.553.707.759.707.759-.111 1.371-.94.7-2.107 1.026-3.686 1.026Zm-2.681-5.858c1.512-.3 3.029-.582 4.535-.912.423-.092.14-.396.045-.58-.496-.968-1.765-1.458-2.976-1.169-1.049.25-1.872 1.263-1.914 2.314-.01.257.023.39.31.347ZM127.272 24.541c-3.066-.003-5.212-1.388-5.961-3.776-.942-3 .669-6.042 3.673-6.931 3.141-.931 6.325.642 7.113 3.517.436 1.587.421 1.607-1.187 1.915-1.939.372-3.879.74-5.817 1.12-.671.132-.702.252-.25.779.904 1.055 3.18 1.25 4.506.293.523-.377.801-.313 1.121.159.097.142.231.26.349.39.85.919.847 1.008-.22 1.68-1.05.658-2.214.9-3.327.854Zm-2.691-5.88c1.283-.25 2.669-.546 4.065-.783.661-.112.613-.388.331-.832-.559-.88-1.85-1.318-2.989-1-.989.277-1.812 1.319-1.848 2.304-.009.27.07.37.441.311ZM103.18 24.54c-1.483.034-2.838-.268-4.141-.827-.383-.164-.56-.35-.32-.783.28-.5.37-1.2.776-1.506.464-.349.996.284 1.52.425 1.003.268 2.008.425 3.038.286.519-.07 1.105-.16 1.117-.864.012-.648-.555-.698-1.004-.794-1.001-.215-2.017-.359-3.013-.594-1.464-.346-2.197-1.142-2.352-2.453-.159-1.341.427-2.509 1.703-3.129 2.29-1.11 4.605-.865 6.908.005.334.125.415.326.241.631-.013.021-.023.045-.034.068-.249.515-.378 1.183-.782 1.505-.447.356-.972-.268-1.493-.369-.893-.17-1.779-.277-2.674-.069-.455.107-.888.31-.889.863-.002.54.44.68.866.773 1.074.232 2.16.41 3.224.676 1.406.354 2.187 1.19 2.291 2.344.129 1.453-.463 2.524-1.763 3.17-1.035.513-2.137.68-3.219.642ZM111.976 16.614c0-1.545.012-3.09-.008-4.634-.006-.446.124-.629.595-.605.673.035 1.35.027 2.023.003.398-.013.529.14.512.523-.023.497.024.998-.014 1.494-.039.51.178.653.654.621.497-.031 1 .01 1.498-.012.395-.018.499.143.517.523.084 1.869.095 1.906-1.78 1.854-.738-.021-.938.2-.895.915.064 1.042.006 2.091.02 3.138.018 1.42.764 1.982 2.089 1.488.486-.18.608-.046.724.35.076.263.189.514.285.77.354.94.327 1.011-.625 1.294a5.715 5.715 0 0 1-2.89.085c-1.595-.353-2.549-1.4-2.624-3.026-.075-1.59-.017-3.186-.017-4.78h-.064ZM139.4 14.975c.888-.902 1.876-1.258 2.978-1.372.44-.045.649.059.621.55a16.799 16.799 0 0 0-.002 1.795c.018.407-.146.484-.527.491-2.136.047-2.987.921-2.999 3.043-.008 1.298.001 2.595-.003 3.893-.005 1.226.06 1.002-1.06 1.02-.526.009-1.051-.014-1.577.006-.359.013-.478-.128-.476-.48.007-3.219.009-6.438-.002-9.657-.001-.382.115-.541.514-.523.55.026 1.105.052 1.65-.006.67-.072.931.166.826.827-.016.092.023.193.057.413Z"/></g><defs><clipPath id="a"><path fill="#fff" d="M0 0h143v35H0z"/></clipPath></defs></svg>